<svg width="44" height="44" viewBox="0 0 44 44" fill="none" xmlns="http://www.w3.org/2000/svg">
<path d="M22 1C33.598 1 43 10.402 43 22C43 33.598 33.598 43 22 43C10.402 43 1 33.598 1 22C1 10.402 10.402 1 22 1Z" fill="white"/>
<path d="M22 1C33.598 1 43 10.402 43 22C43 33.598 33.598 43 22 43C10.402 43 1 33.598 1 22C1 10.402 10.402 1 22 1Z" stroke="#42CCC5" stroke-width="2"/>
<path d="M21.4102 28.1016V24.3711H17.6797V22.4961H21.4102V18.7656H23.2852V22.4961H27.0352V24.3711H23.2852V28.1016H21.4102Z" fill="#9FA1A8"/>
</svg>
