<svg width="16" height="16" viewBox="0 0 16 16" fill="none" xmlns="http://www.w3.org/2000/svg">
<g clip-path="url(#clip0_857_278)">
<path d="M11.6667 6.33329C11.6667 4.30663 10.0267 2.66663 8.00004 2.66663C5.97337 2.66663 4.33337 4.30663 4.33337 6.33329C4.33337 8.13329 5.62671 9.61996 7.33337 9.93329V11.3333H6.00004V12.6666H7.33337V14H8.66671V12.6666H10V11.3333H8.66671V9.93329C10.3734 9.61996 11.6667 8.13329 11.6667 6.33329ZM5.66671 6.33329C5.66671 5.04663 6.71337 3.99996 8.00004 3.99996C9.28671 3.99996 10.3334 5.04663 10.3334 6.33329C10.3334 7.61996 9.28671 8.66663 8.00004 8.66663C6.71337 8.66663 5.66671 7.61996 5.66671 6.33329Z" fill="#EB3223"/>
</g>
<defs>
<clipPath id="clip0_857_278">
<rect width="16" height="16" fill="white"/>
</clipPath>
</defs>
</svg>
