<svg width="112" height="38" viewBox="0 0 112 38" fill="none" xmlns="http://www.w3.org/2000/svg">
<path d="M18.0219 25.656C18.0219 27.1707 17.6165 28.3227 16.8059 29.112C16.0165 29.9013 14.6619 30.296 12.7419 30.296H1.70188V26.136H11.9419C12.4325 26.136 12.7632 26.0507 12.9339 25.88C13.1259 25.7093 13.2219 25.4213 13.2219 25.016C13.2219 24.696 13.1259 24.44 12.9339 24.248C12.7632 24.0347 12.4325 23.864 11.9419 23.736L4.29388 21.56C3.71788 21.3893 3.23788 21.1653 2.85388 20.888C2.46988 20.5893 2.17121 20.2587 1.95788 19.896C1.74454 19.5333 1.59521 19.1387 1.50988 18.712C1.42454 18.264 1.38188 17.7947 1.38188 17.304V16.632C1.38188 15.1173 1.77654 13.9653 2.56588 13.176C3.37654 12.3867 4.74188 11.992 6.66188 11.992H17.0619V16.152H7.46188C6.97121 16.152 6.62988 16.216 6.43788 16.344C6.26721 16.472 6.18188 16.7067 6.18188 17.048C6.18188 17.304 6.26721 17.5173 6.43788 17.688C6.62988 17.8373 6.97121 17.976 7.46188 18.104L15.1099 20.28C15.6859 20.4507 16.1659 20.6853 16.5499 20.984C16.9339 21.2613 17.2325 21.5813 17.4459 21.944C17.6592 22.3067 17.8085 22.712 17.8939 23.16C17.9792 23.608 18.0219 24.0667 18.0219 24.536V25.656ZM36.9044 26.776C36.9044 28.056 36.6377 28.9627 36.1044 29.496C35.571 30.0293 34.6644 30.296 33.3844 30.296H25.2244C23.3044 30.296 21.939 29.9227 21.1284 29.176C20.339 28.4293 19.9444 27.256 19.9444 25.656V23.032C19.9444 21.432 20.339 20.2587 21.1284 19.512C21.939 18.7653 23.3044 18.392 25.2244 18.392H32.1044V17.592C32.1044 16.632 31.6244 16.152 30.6644 16.152H21.1604V11.992H31.6244C33.5444 11.992 34.899 12.3653 35.6884 13.112C36.499 13.8587 36.9044 15.032 36.9044 16.632V26.776ZM31.1444 26.136C31.5497 26.136 31.8057 26.0827 31.9124 25.976C32.0404 25.848 32.1044 25.5813 32.1044 25.176V22.232H26.1844C25.2244 22.232 24.7444 22.712 24.7444 23.672V24.696C24.7444 25.656 25.2244 26.136 26.1844 26.136H31.1444ZM51.8999 28.76C51.5372 29.784 50.8759 30.296 49.9159 30.296H46.1079C45.1265 30.296 44.4652 29.784 44.1239 28.76L38.3319 11.992H43.4519L47.9959 26.136L52.5399 11.992H57.6599L51.8999 28.76ZM74.8521 30.296H64.3881C62.4681 30.296 61.1028 29.9227 60.2921 29.176C59.5028 28.4293 59.1081 27.256 59.1081 25.656V16.632C59.1081 15.032 59.5028 13.8587 60.2921 13.112C61.1028 12.3653 62.4681 11.992 64.3881 11.992H70.7881C72.7081 11.992 74.0628 12.3653 74.8521 13.112C75.6628 13.8587 76.0681 15.032 76.0681 16.632V19.256C76.0681 20.856 75.6628 22.0293 74.8521 22.776C74.0628 23.5227 72.7081 23.896 70.7881 23.896H63.9081V24.696C63.9081 25.656 64.3881 26.136 65.3481 26.136H74.8521V30.296ZM69.8281 20.056C70.7881 20.056 71.2681 19.576 71.2681 18.616V17.592C71.2681 16.632 70.7881 16.152 69.8281 16.152H65.3481C64.3881 16.152 63.9081 16.632 63.9081 17.592V20.056H69.8281ZM102.296 30.296H97.4956V19.032C97.4956 17.9653 97.2716 17.2187 96.8236 16.792C96.3756 16.3653 95.7036 16.152 94.8076 16.152H92.6956V30.296H87.8956V16.152H84.0556C83.6503 16.152 83.3836 16.216 83.2556 16.344C83.149 16.4507 83.0956 16.7067 83.0956 17.112V30.296H78.2956V15.512C78.2956 14.232 78.5623 13.3253 79.0956 12.792C79.629 12.2587 80.5356 11.992 81.8156 11.992H95.0956C97.549 11.992 99.3623 12.5573 100.536 13.688C101.709 14.7973 102.296 16.5147 102.296 18.84V30.296Z" fill="#59ABED"/>
</svg>
