<svg width="32" height="47" viewBox="0 0 32 47" fill="none" xmlns="http://www.w3.org/2000/svg">
<path d="M16 47L9.0718 29L22.9282 29L16 47Z" fill="#FFFB04"/>
<rect width="32" height="32" rx="16" fill="#FFFB04"/>
<path d="M20.95 7C22.95 7 24.625 7.82222 25.975 9.46667C27.325 11.1111 28 13.0667 28 15.3333C28 15.7333 27.98 16.1278 27.94 16.5167C27.9 16.9056 27.83 17.2889 27.73 17.6667H20.23L18.19 14.2667C18.09 14.0889 17.95 13.9444 17.77 13.8333C17.59 13.7222 17.4 13.6667 17.2 13.6667C16.94 13.6667 16.705 13.7556 16.495 13.9333C16.285 14.1111 16.14 14.3333 16.06 14.6L14.44 20L13.39 18.2667C13.29 18.0889 13.15 17.9444 12.97 17.8333C12.79 17.7222 12.6 17.6667 12.4 17.6667H4.27C4.17 17.2889 4.1 16.9056 4.06 16.5167C4.02 16.1278 4 15.7444 4 15.3667C4 13.0778 4.67 11.1111 6.01 9.46667C7.35 7.82222 9.02 7 11.02 7C11.98 7 12.885 7.21111 13.735 7.63333C14.585 8.05556 15.34 8.64444 16 9.4C16.64 8.64444 17.385 8.05556 18.235 7.63333C19.085 7.21111 19.99 7 20.95 7ZM16 31C15.64 31 15.295 30.9278 14.965 30.7833C14.635 30.6389 14.34 30.4222 14.08 30.1333L6.04 21.1667C5.92 21.0333 5.81 20.9 5.71 20.7667C5.61 20.6333 5.51 20.4889 5.41 20.3333H11.74L13.78 23.7333C13.88 23.9111 14.02 24.0556 14.2 24.1667C14.38 24.2778 14.57 24.3333 14.77 24.3333C15.03 24.3333 15.27 24.2444 15.49 24.0667C15.71 23.8889 15.86 23.6667 15.94 23.4L17.56 18L18.58 19.7333C18.7 19.9111 18.85 20.0556 19.03 20.1667C19.21 20.2778 19.4 20.3333 19.6 20.3333H26.56L26.26 20.7333L25.96 21.1333L17.89 30.1333C17.63 30.4222 17.34 30.6389 17.02 30.7833C16.7 30.9278 16.36 31 16 31Z" fill="#E77483"/>
</svg>
