<svg width="53" height="54" viewBox="0 0 53 54" fill="none" xmlns="http://www.w3.org/2000/svg">
<rect y="0.5" width="53" height="53" rx="26.5" fill="#74CCC7"/>
<path d="M18.5 38.6666C17.7667 38.6666 17.1391 38.4058 16.6173 37.884C16.0947 37.3613 15.8333 36.7333 15.8333 36V24C15.8333 23.5778 15.928 23.1778 16.1173 22.8C16.3058 22.4222 16.5667 22.1111 16.9 21.8666L24.9 15.8666C25.1445 15.6889 25.4 15.5555 25.6667 15.4666C25.9333 15.3778 26.2111 15.3333 26.5 15.3333C26.7889 15.3333 27.0667 15.3778 27.3333 15.4666C27.6 15.5555 27.8556 15.6889 28.1 15.8666L36.1 21.8666C36.4333 22.1111 36.6947 22.4222 36.884 22.8C37.0725 23.1778 37.1667 23.5778 37.1667 24V36C37.1667 36.7333 36.9058 37.3613 36.384 37.884C35.8613 38.4058 35.2333 38.6666 34.5 38.6666H29.1667V29.3333H23.8333V38.6666H18.5Z" fill="white"/>
</svg>
