<svg width="57" height="56" viewBox="0 0 57 56" fill="none" xmlns="http://www.w3.org/2000/svg">
<rect x="1.5" y="1" width="54" height="54" rx="27" fill="#FEFFF7"/>
<rect x="1.5" y="1" width="54" height="54" rx="27" stroke="#74CCC7" stroke-width="2"/>
<path d="M20.5 39.6666C19.7666 39.6666 19.1391 39.4058 18.6173 38.884C18.0946 38.3613 17.8333 37.7333 17.8333 37V25C17.8333 24.5778 17.928 24.1778 18.1173 23.8C18.3058 23.4222 18.5666 23.1111 18.9 22.8666L26.9 16.8666C27.1444 16.6889 27.4 16.5555 27.6666 16.4666C27.9333 16.3778 28.2111 16.3333 28.5 16.3333C28.7889 16.3333 29.0666 16.3778 29.3333 16.4666C29.6 16.5555 29.8555 16.6889 30.1 16.8666L38.1 22.8666C38.4333 23.1111 38.6946 23.4222 38.884 23.8C39.0724 24.1778 39.1666 24.5778 39.1666 25V37C39.1666 37.7333 38.9058 38.3613 38.384 38.884C37.8613 39.4058 37.2333 39.6666 36.5 39.6666H31.1666V30.3333H25.8333V39.6666H20.5Z" fill="#42CCC5"/>
</svg>
