<svg width="359" height="135" viewBox="0 0 359 135" fill="none" xmlns="http://www.w3.org/2000/svg">
<path d="M111.544 52.312C111.544 55.3413 110.733 57.6453 109.112 59.224C107.533 60.8027 104.824 61.592 100.984 61.592H78.9038V53.272H99.3838C100.365 53.272 101.026 53.1013 101.368 52.76C101.752 52.4187 101.944 51.8427 101.944 51.032C101.944 50.392 101.752 49.88 101.368 49.496C101.026 49.0693 100.365 48.728 99.3838 48.472L84.0878 44.12C82.9358 43.7787 81.9758 43.3307 81.2078 42.776C80.4398 42.1787 79.8424 41.5173 79.4158 40.792C78.9891 40.0667 78.6904 39.2773 78.5198 38.424C78.3491 37.528 78.2638 36.5893 78.2638 35.608V34.264C78.2638 31.2347 79.0531 28.9307 80.6318 27.352C82.2531 25.7733 84.9838 24.984 88.8238 24.984H109.624V33.304H90.4238C89.4424 33.304 88.7598 33.432 88.3758 33.688C88.0344 33.944 87.8638 34.4133 87.8638 35.096C87.8638 35.608 88.0344 36.0347 88.3758 36.376C88.7598 36.6747 89.4424 36.952 90.4238 37.208L105.72 41.56C106.872 41.9013 107.832 42.3707 108.6 42.968C109.368 43.5227 109.965 44.1627 110.392 44.888C110.818 45.6133 111.117 46.424 111.288 47.32C111.458 48.216 111.544 49.1333 111.544 50.072V52.312ZM149.309 54.552C149.309 57.112 148.775 58.9253 147.709 59.992C146.642 61.0587 144.829 61.592 142.269 61.592H125.949C122.109 61.592 119.378 60.8453 117.757 59.352C116.178 57.8587 115.389 55.512 115.389 52.312V47.064C115.389 43.864 116.178 41.5173 117.757 40.024C119.378 38.5307 122.109 37.784 125.949 37.784H139.709V36.184C139.709 34.264 138.749 33.304 136.829 33.304H117.821V24.984H138.749C142.589 24.984 145.298 25.7307 146.877 27.224C148.498 28.7173 149.309 31.064 149.309 34.264V54.552ZM137.789 53.272C138.599 53.272 139.111 53.1653 139.325 52.952C139.581 52.696 139.709 52.1627 139.709 51.352V45.464H127.869C125.949 45.464 124.989 46.424 124.989 48.344V50.392C124.989 52.312 125.949 53.272 127.869 53.272H137.789ZM179.3 58.52C178.574 60.568 177.252 61.592 175.332 61.592H167.716C165.753 61.592 164.43 60.568 163.748 58.52L152.164 24.984H162.404L171.492 53.272L180.58 24.984H190.82L179.3 58.52ZM225.204 61.592H204.276C200.436 61.592 197.706 60.8453 196.084 59.352C194.506 57.8587 193.716 55.512 193.716 52.312V34.264C193.716 31.064 194.506 28.7173 196.084 27.224C197.706 25.7307 200.436 24.984 204.276 24.984H217.076C220.916 24.984 223.626 25.7307 225.204 27.224C226.826 28.7173 227.636 31.064 227.636 34.264V39.512C227.636 42.712 226.826 45.0587 225.204 46.552C223.626 48.0453 220.916 48.792 217.076 48.792H203.316V50.392C203.316 52.312 204.276 53.272 206.196 53.272H225.204V61.592ZM215.156 41.112C217.076 41.112 218.036 40.152 218.036 38.232V36.184C218.036 34.264 217.076 33.304 215.156 33.304H206.196C204.276 33.304 203.316 34.264 203.316 36.184V41.112H215.156ZM280.091 61.592H270.491V39.064C270.491 36.9307 270.043 35.4373 269.147 34.584C268.251 33.7307 266.907 33.304 265.115 33.304H260.891V61.592H251.291V33.304H243.611C242.801 33.304 242.267 33.432 242.011 33.688C241.798 33.9013 241.691 34.4133 241.691 35.224V61.592H232.091V32.024C232.091 29.464 232.625 27.6507 233.691 26.584C234.758 25.5173 236.571 24.984 239.131 24.984H265.691C270.598 24.984 274.225 26.1147 276.571 28.376C278.918 30.5947 280.091 34.0293 280.091 38.68V61.592Z" fill="#59ABED"/>
<path d="M46.3 114.52C49.34 114.072 52.22 111.688 52.22 106.808V105.208H46.62V103.32H54.3V106.808C54.3 112.248 51.068 115.928 46.3 116.504V114.52ZM56.38 116.984V103H58.46V108.44H60.06V110.424H58.46V116.984H56.38ZM71.4188 116.984V114.264H61.6588V112.504H73.4988V116.984H71.4188ZM61.0188 111.448V109.688H66.5388V108.28H68.6188V109.688H74.1388V111.448H61.0188ZM61.4988 108.76V107.032C63.6908 107.032 66.4428 106.216 66.5388 105.048H61.6588V103.32H73.4988V105.048H68.6188C68.7148 106.216 71.4668 107.032 73.6588 107.032V108.76C71.5948 108.76 68.7788 108.072 67.5788 106.792C66.3788 108.072 63.5628 108.76 61.4988 108.76ZM79.7375 110.36C84.1535 110.36 88.4255 110.328 92.8575 109.832V111.688C91.0015 111.896 89.1615 112.024 87.3375 112.104V116.984H85.2575V112.168C83.4335 112.216 81.5935 112.216 79.7375 112.216V110.36ZM80.3775 105.176V103.32H92.2175V104.536C92.2175 106.28 91.9935 108.104 91.7695 109.304C91.3055 109.352 90.1535 109.448 89.6895 109.48C89.9135 108.136 90.1375 106.312 90.1375 105.176H80.3775ZM97.8483 116.984C96.3283 116.984 95.0963 115.752 95.0963 114.232C95.0963 112.712 96.3283 111.48 97.8483 111.48H104.344C105.864 111.48 107.096 112.712 107.096 114.232C107.096 115.752 105.864 116.984 104.344 116.984H97.8483ZM94.7763 110.36V108.408C96.4723 107.96 98.0563 106.184 98.0563 104.616V103.24H100.136V104.616C100.136 106.184 101.72 107.96 103.416 108.408V110.36C101.864 110.04 100.056 108.856 99.0963 107.304C98.1363 108.856 96.3283 110.04 94.7763 110.36ZM97.1123 114.232C97.1123 114.76 97.5123 115.192 98.0403 115.192H104.152C104.68 115.192 105.08 114.76 105.08 114.232C105.08 113.704 104.68 113.272 104.152 113.272H98.0403C97.5123 113.272 97.1123 113.704 97.1123 114.232ZM102.456 106.888V105.032H104.856V103H106.936V111H104.856V106.888H102.456ZM109.975 112.632H112.055V115.336C115.431 115.256 118.727 115.048 121.815 114.504V116.264C118.087 116.92 114.071 117.08 109.975 117.144V112.632ZM109.175 111.416V109.688H119.575V106.824H118.375V105.096H119.575V103H121.655V113.272H119.575V111.416H115.095V113.432H113.015V111.416H109.175ZM109.655 105.96C109.655 104.504 110.839 103.32 112.295 103.32H115.335C116.791 103.32 117.975 104.504 117.975 105.96C117.975 107.416 116.791 108.6 115.335 108.6H112.295C110.839 108.6 109.655 107.416 109.655 105.96ZM111.671 105.96C111.671 106.504 112.087 106.936 112.615 106.936H115.015C115.543 106.936 115.959 106.504 115.959 105.96C115.959 105.416 115.543 104.984 115.015 104.984H112.615C112.087 104.984 111.671 105.416 111.671 105.96ZM128.534 103.32H140.374V110.792C138.79 111.064 137.158 111.24 135.494 111.368V114.312C137.398 114.168 139.27 113.96 141.014 113.624V115.544C136.966 116.312 132.31 116.472 127.894 116.504V114.584C129.718 114.568 131.574 114.536 133.414 114.44V111.496C131.814 111.576 130.182 111.608 128.534 111.64V103.32ZM130.55 109.752C133.222 109.672 135.846 109.544 138.358 109.24V105.176H130.55V109.752ZM142.613 111.32C147.029 111.32 151.301 111.288 155.733 110.792V112.648C153.877 112.856 152.037 112.984 150.213 113.064V116.984H148.133V113.128C146.309 113.176 144.469 113.176 142.613 113.176V111.32ZM143.253 109.72V103.32H155.093V105.144H145.301V107.896C148.565 107.864 151.797 107.768 155.157 107.448V109.272C151.093 109.656 147.237 109.72 143.253 109.72ZM157.331 114.504C160.563 114.472 164.355 114.248 167.731 113.448V103H169.811V116.984H167.731V115.304C164.355 116.104 160.563 116.328 157.331 116.36V114.504ZM157.811 107.448C157.811 104.888 159.731 103.16 162.051 103.16C164.371 103.16 166.291 104.888 166.291 107.448C166.291 110.008 164.371 111.736 162.051 111.736C159.731 111.736 157.811 110.008 157.811 107.448ZM159.827 107.448C159.827 108.984 160.819 109.944 162.051 109.944C163.283 109.944 164.275 108.984 164.275 107.448C164.275 105.912 163.283 104.952 162.051 104.952C160.819 104.952 159.827 105.912 159.827 107.448ZM176.85 111.992H178.93V115.24C182.306 115.16 185.602 114.952 188.69 114.408V116.264C184.962 116.92 180.946 117.08 176.85 117.144V111.992ZM176.21 110.872V109.048C179.506 109.048 182.13 107.256 182.13 105.304V105.144H176.53V103.32H184.21V104.76C184.21 105.352 184.13 105.896 183.97 106.408H186.45V103H188.53V112.952H186.45V108.264H182.914C181.474 109.944 178.978 110.872 176.21 110.872ZM194.001 116.984C192.481 116.984 191.249 115.752 191.249 114.232C191.249 112.712 192.481 111.48 194.001 111.48H200.337C201.857 111.48 203.089 112.712 203.089 114.232C203.089 115.752 201.857 116.984 200.337 116.984H194.001ZM190.769 110.36V108.536C194.065 108.536 196.689 107 196.689 105.304V105.144H191.089V103.32H198.769V104.76C198.769 108.344 195.089 110.36 190.769 110.36ZM193.265 114.232C193.265 114.76 193.665 115.192 194.193 115.192H200.145C200.673 115.192 201.073 114.76 201.073 114.232C201.073 113.704 200.673 113.272 200.145 113.272H194.193C193.665 113.272 193.265 113.704 193.265 114.232ZM200.849 111V103H202.929V105.96H204.529V107.88H202.929V111H200.849ZM206.128 112.472H208.208V115.336C211.536 115.256 214.752 115.048 217.808 114.504V116.264C214.112 116.92 210.192 117.08 206.128 117.144V112.472ZM205.328 111.352V109.624H208.208V106.84H210.288V109.624H215.568V103H217.648V106.68H219.248V108.6H217.648V113.192H215.568V111.352H205.328ZM205.968 105.048V103.32H214.128V104.44C214.128 106.072 214 107.672 213.824 108.792H211.776C211.952 107.672 212.048 106.072 212.048 105.048H205.968ZM220.686 108.696H226.35V105.176H220.686V103.32H228.366V110.488H222.702V114.584C225.038 114.472 227.63 114.216 229.646 113.8V115.656C227.022 116.2 223.438 116.472 220.686 116.504V108.696ZM230.606 116.984V103H232.686V116.984H230.606ZM238.925 108.664H246.669V106.52H245.869V104.792H246.669V103.064H248.621V111.352H246.669V110.392H243.501V111.544H241.485V110.392H238.925V108.664ZM239.165 105.656C239.165 104.28 240.269 103.192 241.661 103.192H243.133C244.525 103.192 245.629 104.28 245.629 105.656C245.629 107.032 244.525 108.12 243.133 108.12H241.661C240.269 108.12 239.165 107.032 239.165 105.656ZM239.725 117.144V111.864H241.741V112.728H249.389V111.864H251.405V116.296C247.709 116.92 243.789 117.08 239.725 117.144ZM241.085 105.656C241.085 106.12 241.421 106.488 241.885 106.488H242.909C243.373 106.488 243.709 106.12 243.709 105.656C243.709 105.192 243.373 104.824 242.909 104.824H241.885C241.421 104.824 241.085 105.192 241.085 105.656ZM241.741 115.4C244.365 115.336 246.925 115.208 249.389 114.888V114.392H241.741V115.4ZM249.421 111.384V103H251.405V111.384H249.421ZM256.524 115.528C256.524 117.592 254.892 118.52 253.964 118.68V117.64C254.604 117.432 255.212 116.92 255.324 116.2C254.86 116.264 254.364 116.28 253.964 116.28V113.72H256.524V115.528ZM264.265 113.432C264.361 114.296 265.065 114.648 266.009 114.648C266.857 114.648 267.337 114.264 267.337 113.656C267.337 113.112 266.921 112.76 266.057 112.504C265.481 112.344 264.745 112.104 264.105 111.832C263.129 111.432 262.569 110.68 262.569 109.544C262.569 108.136 263.721 106.808 265.865 106.808C267.913 106.808 269.145 108.024 269.273 109.592H267.257C267.129 108.84 266.585 108.472 265.865 108.472C264.937 108.472 264.569 108.984 264.569 109.448C264.569 109.896 264.857 110.168 265.545 110.424C266.073 110.616 266.761 110.808 267.417 111.032C268.553 111.432 269.337 112.168 269.337 113.544C269.337 115.336 267.833 116.312 265.849 116.312C263.849 116.312 262.457 115.24 262.281 113.432H264.265ZM270.706 110.664C270.706 108.488 271.89 106.808 274.162 106.808C275.154 106.808 275.954 107.16 276.53 107.768V107H278.482V116.12H276.53V115.352C275.954 115.96 275.154 116.312 274.162 116.312C271.89 116.312 270.706 114.632 270.706 112.456V110.664ZM272.738 112.456C272.738 114.104 273.698 114.552 274.594 114.552C275.49 114.552 276.45 114.104 276.45 112.456V110.664C276.45 109.016 275.49 108.568 274.594 108.568C273.698 108.568 272.738 109.016 272.738 110.664V112.456ZM282.924 116.12L280.076 107H282.204L284.316 113.848L286.412 107H288.54L285.692 116.12H282.924ZM295.277 110.616C295.277 109.016 294.349 108.568 293.469 108.568C292.573 108.568 291.613 109.016 291.613 110.616V110.92C292.813 110.888 294.093 110.776 295.277 110.632V110.616ZM289.581 112.488V110.664C289.581 108.488 290.973 106.808 293.437 106.808C295.885 106.808 297.277 108.488 297.277 110.664V111.992C295.741 112.264 293.517 112.52 291.613 112.568C291.645 113.976 292.541 114.552 293.373 114.552C294.573 114.552 295.053 113.976 295.197 113.272H297.213C297.069 114.856 295.949 116.312 293.373 116.312C290.957 116.312 289.581 114.488 289.581 112.488ZM299.04 107.96C299.712 107.464 301.024 106.808 302.448 106.808C303.376 106.808 304.16 107.048 304.752 107.464C305.456 107.112 306.368 106.808 307.328 106.808C309.424 106.808 310.832 108.024 310.832 109.816V116.12H308.8V110.12C308.8 109.064 308.192 108.568 307.216 108.568C306.768 108.568 306.288 108.744 305.952 109V116.12H303.92V110.12C303.92 109.064 303.312 108.568 302.336 108.568C301.888 108.568 301.408 108.744 301.072 109V116.12H299.04V107.96Z" fill="#58ABEC"/>
</svg>
