<svg width="223" height="76" viewBox="0 0 223 76" fill="none" xmlns="http://www.w3.org/2000/svg">
<path d="M43.5438 52.312C43.5438 55.3413 42.7331 57.6453 41.1118 59.224C39.5331 60.8027 36.8238 61.592 32.9838 61.592H10.9038V53.272H31.3838C32.3651 53.272 33.0264 53.1013 33.3678 52.76C33.7518 52.4187 33.9438 51.8427 33.9438 51.032C33.9438 50.392 33.7518 49.88 33.3678 49.496C33.0264 49.0693 32.3651 48.728 31.3838 48.472L16.0878 44.12C14.9358 43.7787 13.9758 43.3307 13.2078 42.776C12.4398 42.1787 11.8424 41.5173 11.4158 40.792C10.9891 40.0667 10.6904 39.2773 10.5198 38.424C10.3491 37.528 10.2638 36.5893 10.2638 35.608V34.264C10.2638 31.2347 11.0531 28.9307 12.6318 27.352C14.2531 25.7733 16.9838 24.984 20.8238 24.984H41.6238V33.304H22.4238C21.4424 33.304 20.7598 33.432 20.3758 33.688C20.0344 33.944 19.8638 34.4133 19.8638 35.096C19.8638 35.608 20.0344 36.0347 20.3758 36.376C20.7598 36.6747 21.4424 36.952 22.4238 37.208L37.7198 41.56C38.8718 41.9013 39.8318 42.3707 40.5998 42.968C41.3678 43.5227 41.9651 44.1627 42.3918 44.888C42.8184 45.6133 43.1171 46.424 43.2878 47.32C43.4584 48.216 43.5438 49.1333 43.5438 50.072V52.312ZM81.3088 54.552C81.3088 57.112 80.7754 58.9253 79.7088 59.992C78.6421 61.0587 76.8288 61.592 74.2688 61.592H57.9488C54.1088 61.592 51.3781 60.8453 49.7568 59.352C48.1781 57.8587 47.3888 55.512 47.3888 52.312V47.064C47.3888 43.864 48.1781 41.5173 49.7568 40.024C51.3781 38.5307 54.1088 37.784 57.9488 37.784H71.7088V36.184C71.7088 34.264 70.7488 33.304 68.8288 33.304H49.8208V24.984H70.7488C74.5888 24.984 77.2981 25.7307 78.8768 27.224C80.4981 28.7173 81.3088 31.064 81.3088 34.264V54.552ZM69.7888 53.272C70.5994 53.272 71.1114 53.1653 71.3248 52.952C71.5808 52.696 71.7088 52.1627 71.7088 51.352V45.464H59.8688C57.9488 45.464 56.9888 46.424 56.9888 48.344V50.392C56.9888 52.312 57.9488 53.272 59.8688 53.272H69.7888ZM111.3 58.52C110.574 60.568 109.252 61.592 107.332 61.592H99.7158C97.7531 61.592 96.4304 60.568 95.7478 58.52L84.1638 24.984H94.4038L103.492 53.272L112.58 24.984H122.82L111.3 58.52ZM157.204 61.592H136.276C132.436 61.592 129.706 60.8453 128.084 59.352C126.506 57.8587 125.716 55.512 125.716 52.312V34.264C125.716 31.064 126.506 28.7173 128.084 27.224C129.706 25.7307 132.436 24.984 136.276 24.984H149.076C152.916 24.984 155.626 25.7307 157.204 27.224C158.826 28.7173 159.636 31.064 159.636 34.264V39.512C159.636 42.712 158.826 45.0587 157.204 46.552C155.626 48.0453 152.916 48.792 149.076 48.792H135.316V50.392C135.316 52.312 136.276 53.272 138.196 53.272H157.204V61.592ZM147.156 41.112C149.076 41.112 150.036 40.152 150.036 38.232V36.184C150.036 34.264 149.076 33.304 147.156 33.304H138.196C136.276 33.304 135.316 34.264 135.316 36.184V41.112H147.156ZM212.091 61.592H202.491V39.064C202.491 36.9307 202.043 35.4373 201.147 34.584C200.251 33.7307 198.907 33.304 197.115 33.304H192.891V61.592H183.291V33.304H175.611C174.801 33.304 174.267 33.432 174.011 33.688C173.798 33.9013 173.691 34.4133 173.691 35.224V61.592H164.091V32.024C164.091 29.464 164.625 27.6507 165.691 26.584C166.758 25.5173 168.571 24.984 171.131 24.984H197.691C202.598 24.984 206.225 26.1147 208.571 28.376C210.918 30.5947 212.091 34.0293 212.091 38.68V61.592Z" fill="#59ABED"/>
</svg>
