<svg width="17" height="16" viewBox="0 0 17 16" fill="none" xmlns="http://www.w3.org/2000/svg">
<g clip-path="url(#clip0_9_1218)">
<path d="M6.83335 7.33329C8.12002 7.33329 9.16669 8.37996 9.16669 9.66663C9.16669 10.9533 8.12002 12 6.83335 12C5.54669 12 4.50002 10.9533 4.50002 9.66663C4.50002 8.37996 5.54669 7.33329 6.83335 7.33329ZM6.83335 5.99996C4.80669 5.99996 3.16669 7.63996 3.16669 9.66663C3.16669 11.6933 4.80669 13.3333 6.83335 13.3333C8.86002 13.3333 10.5 11.6933 10.5 9.66663C10.5 8.89329 10.26 8.17996 9.85335 7.58663L12.5 4.94663V6.66663H13.8334V2.66663H9.83335V3.99996H11.5534L8.90669 6.64663C8.32002 6.23996 7.60669 5.99996 6.83335 5.99996Z" fill="#0021F5"/>
</g>
<defs>
<clipPath id="clip0_9_1218">
<rect width="16" height="16" fill="white" transform="translate(0.5)"/>
</clipPath>
</defs>
</svg>
